{
  "accessors": [
    {
      "bufferView": 2,
      "componentType": 5126,
      "count": 65532,
      "max": [
        0.4150739908218384,
        0.16973400115966797,
        0.4670880138874054
      ],
      "min": [
        -0.1244949996471405,
        -0.34210899472236633,
        -0.3181140124797821
      ],
      "type": "VEC3"
    },
    {
      "bufferView": 2,
      "byteOffset": 786384,
      "componentType": 5126,
      "count": 65532,
      "max": [
        0.9999938011169434,
        0.9999116659164429,
        0.9999821186065674
      ],
      "min": [
        -0.9999604225158691,
        -0.9999667406082153,
        -0.9997846484184265
      ],
      "type": "VEC3"
    },
    {
      "bufferView": 1,
      "componentType": 5126,
      "count": 65532,
      "max": [
        0.9985899925231934,
        0.9997419714927673
      ],
      "min": [
        0.0034459999296814203,
        0.0004780000017490238
      ],
      "type": "VEC2"
    },
    {
      "bufferView": 0,
      "componentType": 5125,
      "count": 355422,
      "type": "SCALAR"
    },
    {
      "bufferView": 2,
      "byteOffset": 1572768,
      "componentType": 5126,
      "count": 65532,
      "max": [
        0.4150559902191162,
        0.36129501461982727,
        0.4670880138874054
      ],
      "min": [
        -0.19649100303649902,
        -0.3223170042037964,
        -0.4101159870624542
      ],
      "type": "VEC3"
    },
    {
      "bufferView": 2,
      "byteOffset": 2359152,
      "componentType": 5126,
      "count": 65532,
      "max": [
        0.9999973773956299,
        0.9999724626541138,
        0.999945878982544
      ],
      "min": [
        -0.9999794960021973,
        -0.9999995231628418,
        -0.9999663829803467
      ],
      "type": "VEC3"
    },
    {
      "bufferView": 1,
      "byteOffset": 524256,
      "componentType": 5126,
      "count": 65532,
      "max": [
        0.9936710000038147,
        0.9996569752693176
      ],
      "min": [
        0.004269000142812729,
        0.008685999549925327
      ],
      "type": "VEC2"
    },
    {
      "bufferView": 0,
      "byteOffset": 1421688,
      "componentType": 5125,
      "count": 347925,
      "type": "SCALAR"
    },
    {
      "bufferView": 2,
      "byteOffset": 3145536,
      "componentType": 5126,
      "count": 65532,
      "max": [
        0.3321959972381592,
        0.3606190085411072,
        0.45255500078201294
      ],
      "min": [
        -0.35330700874328613,
        -0.35429999232292175,
        -0.47022300958633423
      ],
      "type": "VEC3"
    },
    {
      "bufferView": 2,
      "byteOffset": 3931920,
      "componentType": 5126,
      "count": 65532,
      "max": [
        0.9999988079071045,
        0.9999350309371948,
        0.9999716281890869
      ],
      "min": [
        -0.9999843835830688,
        -0.9999696016311646,
        -0.9999319314956665
      ],
      "type": "VEC3"
    },
    {
      "bufferView": 1,
      "byteOffset": 1048512,
      "componentType": 5126,
      "count": 65532,
      "max": [
        0.9988510012626648,
        0.9997460246086121
      ],
      "min": [
        0.0010839999886229634,
        1.1000000085914508e-05
      ],
      "type": "VEC2"
    },
    {
      "bufferView": 0,
      "byteOffset": 2813388,
      "componentType": 5125,
      "count": 346557,
      "type": "SCALAR"
    },
    {
      "bufferView": 2,
      "byteOffset": 4718304,
      "componentType": 5126,
      "count": 65533,
      "max": [
        0.003594999900087714,
        0.27416399121284485,
        0.42692700028419495
      ],
      "min": [
        -0.4068340063095093,
        -0.27755099534988403,
        -0.36122599244117737
      ],
      "type": "VEC3"
    },
    {
      "bufferView": 2,
      "byteOffset": 5504700,
      "componentType": 5126,
      "count": 65533,
      "max": [
        0.9999988079071045,
        0.9999716281890869,
        0.9997839331626892
      ],
      "min": [
        -0.9999955892562866,
        -0.9999595880508423,
        -0.9999817609786987
      ],
      "type": "VEC3"
    },
    {
      "bufferView": 1,
      "byteOffset": 1572768,
      "componentType": 5126,
      "count": 65533,
      "max": [
        0.9988359808921814,
        0.9979410171508789
      ],
      "min": [
        0.0001610000035725534,
        0.007098999805748463
      ],
      "type": "VEC2"
    },
    {
      "bufferView": 0,
      "byteOffset": 4199616,
      "componentType": 5125,
      "count": 350643,
      "type": "SCALAR"
    },
    {
      "bufferView": 2,
      "byteOffset": 6291096,
      "componentType": 5126,
      "count": 23300,
      "max": [
        0.40373000502586365,
        0.3550580143928528,
        0.46604299545288086
      ],
      "min": [
        -0.4065389931201935,
        -0.35418900847435,
        -0.4697360098361969
      ],
      "type": "VEC3"
    },
    {
      "bufferView": 2,
      "byteOffset": 6570696,
      "componentType": 5126,
      "count": 23300,
      "max": [
        0.9999479055404663,
        0.999954104423523,
        0.9992848634719849
      ],
      "min": [
        -0.9999743700027466,
        -0.9999923706054688,
        -0.9999779462814331
      ],
      "type": "VEC3"
    },
    {
      "bufferView": 1,
      "byteOffset": 2097032,
      "componentType": 5126,
      "count": 23300,
      "max": [
        0.9987630248069763,
        0.9988020062446594
      ],
      "min": [
        0.0002410000015515834,
        0.0003020000003743917
      ],
      "type": "VEC2"
    },
    {
      "bufferView": 0,
      "byteOffset": 5602188,
      "componentType": 5125,
      "count": 99453,
      "type": "SCALAR"
    }
  ],
  "asset": {
    "extras": {
      "author": "ᗰOᑎKEY ᗪ. ᒪᑌᖴᖴY (https://sketchfab.com/KingOfThePirates)",
      "license": "SKETCHFAB Standard (https://sketchfab.com/licenses)",
      "source": "https://sketchfab.com/3d-models/juice-wrld-9ded5bb0297b42598df6f751ccfb6e13",
      "title": "Juice WRLD"
    },
    "generator": "Sketchfab-16.56.0",
    "version": "2.0"
  },
  "bufferViews": [
    {
      "buffer": 0,
      "byteLength": 6000000,
      "name": "floatBufferViews",
      "target": 34963
    },
    {
      "buffer": 0,
      "byteLength": 2283432,
      "byteOffset": 6000000,
      "byteStride": 8,
      "name": "floatBufferViews",
      "target": 34962
    },
    {
      "buffer": 0,
      "byteLength": 6850296,
      "byteOffset": 8283432,
      "byteStride": 12,
      "name": "floatBufferViews",
      "target": 34962
    }
  ],
  "buffers": [
    {
      "byteLength": 15133728,
      "uri": "scene.bin"
    }
  ],
  "extensionsUsed": [
    "KHR_materials_unlit"
  ],
  "images": [
    {
      "uri": "textures/tripo_mat_0f721516-02c9-441d-8328-20eb3ffa349f_baseColor.jpeg"
    }
  ],
  "materials": [
    {
      "doubleSided": true,
      "extensions": {
        "KHR_materials_unlit": {}
      },
      "name": "tripo_mat_0f721516-02c9-441d-8328-20eb3ffa349f",
      "pbrMetallicRoughness": {
        "baseColorTexture": {
          "index": 0
        },
        "metallicFactor": 0.0
      }
    }
  ],
  "meshes": [
    {
      "name": "Object_0",
      "primitives": [
        {
          "attributes": {
            "NORMAL": 1,
            "POSITION": 0,
            "TEXCOORD_0": 2
          },
          "indices": 3,
          "material": 0,
          "mode": 4
        }
      ]
    },
    {
      "name": "Object_1",
      "primitives": [
        {
          "attributes": {
            "NORMAL": 5,
            "POSITION": 4,
            "TEXCOORD_0": 6
          },
          "indices": 7,
          "material": 0,
          "mode": 4
        }
      ]
    },
    {
      "name": "Object_2",
      "primitives": [
        {
          "attributes": {
            "NORMAL": 9,
            "POSITION": 8,
            "TEXCOORD_0": 10
          },
          "indices": 11,
          "material": 0,
          "mode": 4
        }
      ]
    },
    {
      "name": "Object_3",
      "primitives": [
        {
          "attributes": {
            "NORMAL": 13,
            "POSITION": 12,
            "TEXCOORD_0": 14
          },
          "indices": 15,
          "material": 0,
          "mode": 4
        }
      ]
    },
    {
      "name": "Object_4",
      "primitives": [
        {
          "attributes": {
            "NORMAL": 17,
            "POSITION": 16,
            "TEXCOORD_0": 18
          },
          "indices": 19,
          "material": 0,
          "mode": 4
        }
      ]
    }
  ],
  "nodes": [
    {
      "children": [
        1
      ],
      "matrix": [
        1.0,
        0.0,
        0.0,
        0.0,
        0.0,
        2.220446049250313e-16,
        -1.0,
        0.0,
        0.0,
        1.0,
        2.220446049250313e-16,
        0.0,
        0.0,
        0.0,
        0.0,
        1.0
      ],
      "name": "Sketchfab_model"
    },
    {
      "children": [
        2,
        3,
        4,
        5,
        6
      ],
      "name": "tripo_convert_0f721516-02c9-441d-8328-20eb3ffa349f.obj.cleaner.materialmerger.gles"
    },
    {
      "mesh": 0,
      "name": "Object_2"
    },
    {
      "mesh": 1,
      "name": "Object_3"
    },
    {
      "mesh": 2,
      "name": "Object_4"
    },
    {
      "mesh": 3,
      "name": "Object_5"
    },
    {
      "mesh": 4,
      "name": "Object_6"
    }
  ],
  "samplers": [
    {
      "magFilter": 9729,
      "minFilter": 9987,
      "wrapS": 10497,
      "wrapT": 10497
    }
  ],
  "scene": 0,
  "scenes": [
    {
      "name": "Sketchfab_Scene",
      "nodes": [
        0
      ]
    }
  ],
  "textures": [
    {
      "sampler": 0,
      "source": 0
    }
  ]
}
